<?xml version="1.0" encoding="UTF-8"?>
<svg version="1.1" xmlns="http://www.w3.org/2000/svg" width="147" height="92">
<path d="M0 0 C48.51 0 97.02 0 147 0 C147 30.36 147 60.72 147 92 C98.49 92 49.98 92 0 92 C0 61.64 0 31.28 0 0 Z " fill="#FBFBFD" transform="translate(0,0)"/>
<path d="M0 0 C-1.07401108 2.91517292 -1.77810176 4.77810176 -4 7 C-4.6683378 8.58660023 -5.28781734 10.19410814 -5.875 11.8125 C-7.69082355 16.49718976 -9.75089099 20.02078407 -13.5625 23.375 C-15.81175852 25.91764006 -16.75385254 28.85496118 -18 32 C-18.66 32 -19.32 32 -20 32 C-20.26554687 32.70511719 -20.53109375 33.41023438 -20.8046875 34.13671875 C-22.06498967 37.15567786 -23.53957994 39.95185076 -25.125 42.8125 C-25.66382812 43.78832031 -26.20265625 44.76414063 -26.7578125 45.76953125 C-27.16773437 46.50558594 -27.57765625 47.24164063 -28 48 C-28.66 48 -29.32 48 -30 48 C-30.28875 48.9075 -30.5775 49.815 -30.875 50.75 C-31.76531776 53.32202908 -32.71494413 55.61346766 -34 58 C-34.66 58 -35.32 58 -36 58 C-36.99 60.97 -36.99 60.97 -38 64 C-38.66 64 -39.32 64 -40 64 C-40.28875 64.9075 -40.5775 65.815 -40.875 66.75 C-41.76531776 69.32202908 -42.71494413 71.61346766 -44 74 C-44.66 74 -45.32 74 -46 74 C-46.2475 74.86625 -46.495 75.7325 -46.75 76.625 C-48.06778613 80.18302254 -49.80186822 82.9226155 -52 86 C-55.95065512 82.54430168 -58.11569658 78.55526303 -60.5625 74 C-62.84402272 69.79498985 -65.06201012 65.78933922 -68 62 C-68.83756758 60.55591797 -69.64989083 59.09692533 -70.4375 57.625 C-71.95150993 54.84013931 -73.50726878 52.16792236 -75.3125 49.5625 C-77 47 -77 47 -77 45 C-77.66 45 -78.32 45 -79 45 C-79.83819158 43.37750059 -80.6704116 41.75191503 -81.5 40.125 C-81.9640625 39.22007813 -82.428125 38.31515625 -82.90625 37.3828125 C-84 35 -84 35 -84 33 C-84.66 33 -85.32 33 -86 33 C-88.97 27.72 -91.94 22.44 -95 17 C-97.64 17.66 -100.28 18.32 -103 19 C-102.34 21.64 -101.68 24.28 -101 27 C-100.34 27 -99.68 27 -99 27 C-98.56300781 27.81791016 -98.56300781 27.81791016 -98.1171875 28.65234375 C-95.88438863 32.75985111 -93.57116605 36.67818463 -90.875 40.5 C-87.95889494 44.76142157 -86.33803632 49.03518104 -85 54 C-81.72226496 53.24849977 -81.72226496 53.24849977 -80 50 C-79.34 50 -78.68 50 -78 50 C-75 55.75 -75 55.75 -75 58 C-74.34 58 -73.68 58 -73 58 C-71.20531514 60.63924244 -70.9996217 61.99374285 -71.1953125 65.23046875 C-72.09622929 69.45078283 -73.59552042 72.14174212 -75.9375 75.75 C-77.00291016 77.41289062 -77.00291016 77.41289062 -78.08984375 79.109375 C-79.38915597 81.07561435 -80.69270574 83.03905861 -82 85 C-82.66 85 -83.32 85 -84 85 C-85.30775702 83.13607045 -86.51973672 81.20468431 -87.6875 79.25 C-88.03619141 78.66887451 -88.38488281 78.08774902 -88.74414062 77.48901367 C-89.47145675 76.27325808 -90.19518854 75.05535184 -90.91552734 73.83544922 C-91.96251706 72.06343916 -93.02101744 70.29879474 -94.08203125 68.53515625 C-99 60.2717668 -99 60.2717668 -99 58 C-99.66 58 -100.32 58 -101 58 C-101.66 56.02 -102.32 54.04 -103 52 C-103.66 52 -104.32 52 -105 52 C-105.67154933 50.71086513 -106.33708859 49.41859796 -107 48.125 C-107.37125 47.40570313 -107.7425 46.68640625 -108.125 45.9453125 C-109 44 -109 44 -109 42 C-109.66 42 -110.32 42 -111 42 C-111.268125 41.50113281 -111.53625 41.00226562 -111.8125 40.48828125 C-116.72891799 31.48023908 -122.1811084 22.80374645 -127.75 14.1875 C-130.49084069 9.91003238 -132.83339273 5.59320741 -135 1 C-128.3973458 1.84907228 -122.5665554 2.90888948 -116.578125 5.84765625 C-110.91444156 8.37915112 -104.90037911 10.10317193 -99 12 C-99.54140625 11.06027344 -99.54140625 11.06027344 -100.09375 10.1015625 C-100.5578125 9.28429688 -101.021875 8.46703125 -101.5 7.625 C-101.9640625 6.81289062 -102.428125 6.00078125 -102.90625 5.1640625 C-104 3 -104 3 -104 1 C-97.78494447 2.0009825 -91.8137232 3.5687347 -85.8125 5.4375 C-85.14798828 5.64270264 -84.48347656 5.84790527 -83.79882812 6.05932617 C-80.53795723 7.09433696 -77.41364248 8.23074845 -74.296875 9.64453125 C-71.32464257 10.86652729 -69.58276822 11.36584782 -66.4375 11.25 C-65.30828125 11.21132813 -65.30828125 11.21132813 -64.15625 11.171875 C-61.3988328 10.95208088 -58.70918805 10.55573088 -56 10 C-56 9.34 -56 8.68 -56 8 C-55.07058594 7.74605469 -54.14117187 7.49210938 -53.18359375 7.23046875 C-45.37602287 5.1465107 -45.37602287 5.1465107 -37.875 2.1875 C-35 1 -35 1 -32.5625 1.3125 C-32.046875 1.539375 -31.53125 1.76625 -31 2 C-31.66 3.65 -32.32 5.3 -33 7 C-33.66 7 -34.32 7 -35 7 C-35.33 8.32 -35.66 9.64 -36 11 C-32.7 10.67 -29.4 10.34 -26 10 C-26 9.34 -26 8.68 -26 8 C-24.7625 7.67 -23.525 7.34 -22.25 7 C-21.20585937 6.7215625 -21.20585937 6.7215625 -20.140625 6.4375 C-18 6 -18 6 -14 6 C-14 5.34 -14 4.68 -14 4 C-12.0429132 3.32968281 -10.08428887 2.66385317 -8.125 2 C-7.03445312 1.62875 -5.94390625 1.2575 -4.8203125 0.875 C-2 0 -2 0 0 0 Z " fill="#151DBD" transform="translate(141,6)"/>
<path d="M0 0 C6.6026542 0.84907228 12.4334446 1.90888948 18.421875 4.84765625 C24.08555844 7.37915112 30.09962089 9.10317193 36 11 C36.33 10.34 36.66 9.68 37 9 C37.12375 9.61875 37.2475 10.2375 37.375 10.875 C37.87197356 13.19120832 37.87197356 13.19120832 40 15 C34.25 18 34.25 18 32 18 C32.66 20.64 33.32 23.28 34 26 C34.66 26 35.32 26 36 26 C36.43699219 26.81791016 36.43699219 26.81791016 36.8828125 27.65234375 C39.11561137 31.75985111 41.42883395 35.67818463 44.125 39.5 C47.04110506 43.76142157 48.66196368 48.03518104 50 53 C53.27773504 52.24849977 53.27773504 52.24849977 55 49 C55.66 49 56.32 49 57 49 C60 54.75 60 54.75 60 57 C60.66 57 61.32 57 62 57 C63.79468486 59.63924244 64.0003783 60.99374285 63.8046875 64.23046875 C62.90377071 68.45078283 61.40447958 71.14174212 59.0625 74.75 C57.99708984 76.41289062 57.99708984 76.41289062 56.91015625 78.109375 C55.61084403 80.07561435 54.30729426 82.03905861 53 84 C52.34 84 51.68 84 51 84 C49.69224298 82.13607045 48.48026328 80.20468431 47.3125 78.25 C46.96380859 77.66887451 46.61511719 77.08774902 46.25585938 76.48901367 C45.52854325 75.27325808 44.80481146 74.05535184 44.08447266 72.83544922 C43.03748294 71.06343916 41.97898256 69.29879474 40.91796875 67.53515625 C36 59.2717668 36 59.2717668 36 57 C35.34 57 34.68 57 34 57 C33.34 55.02 32.68 53.04 32 51 C31.34 51 30.68 51 30 51 C29.32845067 49.71086513 28.66291141 48.41859796 28 47.125 C27.62875 46.40570313 27.2575 45.68640625 26.875 44.9453125 C26 43 26 43 26 41 C25.34 41 24.68 41 24 41 C23.731875 40.50113281 23.46375 40.00226562 23.1875 39.48828125 C18.27108201 30.48023908 12.8188916 21.80374645 7.25 13.1875 C4.50915931 8.91003238 2.16660727 4.59320741 0 0 Z " fill="#3C4EBC" transform="translate(6,7)"/>
<path d="M0 0 C0.7734375 0.3403125 0.7734375 0.3403125 1.5625 0.6875 C0.9025 2.3375 0.2425 3.9875 -0.4375 5.6875 C-1.0975 5.6875 -1.7575 5.6875 -2.4375 5.6875 C-3.37173645 8.69781744 -3.48199911 9.55400268 -2.4375 12.6875 C-3.0975 12.6875 -3.7575 12.6875 -4.4375 12.6875 C-4.4375 13.3475 -4.4375 14.0075 -4.4375 14.6875 C-3.798125 14.996875 -3.15875 15.30625 -2.5 15.625 C-0.4375 16.6875 -0.4375 16.6875 0.5625 17.6875 C0.60330783 19.68708364 0.60504356 21.68795254 0.5625 23.6875 C-0.4275 23.6875 -1.4175 23.6875 -2.4375 23.6875 C-2.68628906 24.37972656 -2.93507812 25.07195313 -3.19140625 25.78515625 C-4.62801263 29.13123319 -6.42877233 32.04800318 -8.375 35.125 C-10.96628078 39.22745761 -13.33304182 43.31365745 -15.4375 47.6875 C-16.0975 47.6875 -16.7575 47.6875 -17.4375 47.6875 C-18.4275 50.1625 -18.4275 50.1625 -19.4375 52.6875 C-20.0975 52.3575 -20.7575 52.0275 -21.4375 51.6875 C-21.4375 51.0275 -21.4375 50.3675 -21.4375 49.6875 C-22.0975 49.6875 -22.7575 49.6875 -23.4375 49.6875 C-23.71722656 49.17703125 -23.99695313 48.6665625 -24.28515625 48.140625 C-27.43879087 42.4214934 -30.72602454 36.79429165 -34.08203125 31.19140625 C-35.4375 28.6875 -35.4375 28.6875 -35.4375 26.6875 C-36.0975 26.6875 -36.7575 26.6875 -37.4375 26.6875 C-40.4375 20.9375 -40.4375 20.9375 -40.4375 18.6875 C-38.64713542 17.7109375 -36.85677083 16.734375 -35.06640625 15.7578125 C-33.27131685 14.77339976 -33.27131685 14.77339976 -32.4375 12.6875 C-33.571875 12.56375 -34.70625 12.44 -35.875 12.3125 C-37.6384375 12.003125 -37.6384375 12.003125 -39.4375 11.6875 C-39.7675 11.0275 -40.0975 10.3675 -40.4375 9.6875 C-39.71304688 9.69910156 -38.98859375 9.71070313 -38.2421875 9.72265625 C-33.18966677 9.76981311 -28.40371233 9.76127564 -23.4375 8.6875 C-23.4375 8.0275 -23.4375 7.3675 -23.4375 6.6875 C-22.04337891 6.30658203 -22.04337891 6.30658203 -20.62109375 5.91796875 C-12.81352287 3.8340107 -12.81352287 3.8340107 -5.3125 0.875 C-2.4375 -0.3125 -2.4375 -0.3125 0 0 Z " fill="#3140AC" transform="translate(108.4375,7.3125)"/>
<path d="M0 0 C4.765625 0.84375 4.765625 0.84375 6.875 2.25 C8 4 8 4 7.80078125 6.2265625 C6.81568168 9.63837077 5.23687074 12.14130899 3.3125 15.125 C-0.39011765 20.94974746 -3.77126114 26.89719435 -7 33 C-7.66 33 -8.32 33 -9 33 C-9.99 35.475 -9.99 35.475 -11 38 C-11.66 37.67 -12.32 37.34 -13 37 C-13 36.34 -13 35.68 -13 35 C-13.66 35 -14.32 35 -15 35 C-15.27972656 34.48953125 -15.55945313 33.9790625 -15.84765625 33.453125 C-19.00129087 27.7339934 -22.28852454 22.10679165 -25.64453125 16.50390625 C-27 14 -27 14 -27 12 C-27.66 12 -28.32 12 -29 12 C-32 6.25 -32 6.25 -32 4 C-29.24075815 2.19588033 -28.11027897 1.9872755 -24.75 2.375 C-23.8425 2.58125 -22.935 2.7875 -22 3 C-21 6 -21 6 -21.9375 8.1875 C-22.288125 8.785625 -22.63875 9.38375 -23 10 C-23.66 10 -24.32 10 -25 10 C-25 10.99 -25 11.98 -25 13 C-24.01 13.33 -23.02 13.66 -22 14 C-20.39453125 16.50390625 -20.39453125 16.50390625 -18.8125 19.5625 C-18.28269531 20.57441406 -17.75289062 21.58632813 -17.20703125 22.62890625 C-16.80871094 23.41136719 -16.41039063 24.19382812 -16 25 C-10.51833191 19.90987963 -7.17539874 13.67131759 -3.75 7.125 C-3.38648437 6.43664062 -3.02296875 5.74828125 -2.6484375 5.0390625 C-1.7627382 3.36089541 -0.8809573 1.68066125 0 0 Z " fill="#F3F4FB" transform="translate(100,22)"/>
<path d="M0 0 C1.51662237 2.29378259 2.87052181 4.53455064 4.1875 6.9375 C4.55552734 7.58396484 4.92355469 8.23042969 5.30273438 8.89648438 C8 13.71553224 8 13.71553224 8 16 C8.66 16 9.32 16 10 16 C10.83819158 17.62249941 11.6704116 19.24808497 12.5 20.875 C12.9640625 21.77992187 13.428125 22.68484375 13.90625 23.6171875 C15 26 15 26 15 28 C15.66 28 16.32 28 17 28 C18.43587438 30.01620694 19.7297534 32.00792234 21 34.125 C21.35578125 34.69476563 21.7115625 35.26453125 22.078125 35.8515625 C24.27491956 39.45824013 25.81831106 42.95025352 27 47 C26.01 46.505 26.01 46.505 25 46 C24.34 47.98 23.68 49.96 23 52 C21.85185003 49.70370006 21.69230191 47.92301914 21.4375 45.375 C21.35371094 44.55773437 21.26992187 43.74046875 21.18359375 42.8984375 C21.12300781 42.27195313 21.06242187 41.64546875 21 41 C20.34 41 19.68 41 19 41 C16 35.25 16 35.25 16 33 C15.401875 33.66 14.80375 34.32 14.1875 35 C12 37 12 37 9 37 C8.731875 36.42894531 8.46375 35.85789063 8.1875 35.26953125 C5.08224075 28.8445047 1.51669944 22.88131679 -2.328125 16.8828125 C-3.72884281 14.46755608 -4.55331036 12.71955162 -5 10 C-5.66 10 -6.32 10 -7 10 C-8.76462683 6.91190305 -9 5.76687864 -9 2 C-3.375 -1.125 -3.375 -1.125 0 0 Z " fill="#EEEFFA" transform="translate(47,23)"/>
<path d="M0 0 C1 3 1 3 0.0625 5.1875 C-0.288125 5.785625 -0.63875 6.38375 -1 7 C-1.66 7 -2.32 7 -3 7 C-3 7.99 -3 8.98 -3 10 C-2.01 10.33 -1.02 10.66 0 11 C1.60546875 13.50390625 1.60546875 13.50390625 3.1875 16.5625 C3.71730469 17.57441406 4.24710938 18.58632813 4.79296875 19.62890625 C5.19128906 20.41136719 5.58960937 21.19382812 6 22 C6.99 21.67 7.98 21.34 9 21 C8.1875 22.9375 8.1875 22.9375 7 25 C6.01 25.33 5.02 25.66 4 26 C2.68085608 23.92062051 1.36961787 21.83691981 0.0625 19.75 C-0.31068359 19.16347656 -0.68386719 18.57695313 -1.06835938 17.97265625 C-2.8965661 15.04093735 -4.46275382 12.44519771 -5 9 C-5.66 9 -6.32 9 -7 9 C-10 3.25 -10 3.25 -10 1 C-6.42181037 -1.33958553 -4.07775191 -0.9267618 0 0 Z " fill="#E1E3F6" transform="translate(78,25)"/>
<path d="M0 0 C3.29078593 2.79716804 5.06305458 6.19528578 7 10 C6.67 10.66 6.34 11.32 6 12 C5.67 11.67 5.34 11.34 5 11 C4.34 12.98 3.68 14.96 3 17 C1.85185003 14.70370006 1.69230191 12.92301914 1.4375 10.375 C1.35371094 9.55773437 1.26992187 8.74046875 1.18359375 7.8984375 C1.12300781 7.27195312 1.06242187 6.64546875 1 6 C0.34 6 -0.32 6 -1 6 C-1.625 4.125 -1.625 4.125 -2 2 C-1.34 1.34 -0.68 0.68 0 0 Z " fill="#CCCFEB" transform="translate(67,58)"/>
<path d="M0 0 C3 2 3 2 5 5 C5.66 4.67 6.32 4.34 7 4 C6.1875 5.9375 6.1875 5.9375 5 8 C4.01 8.33 3.02 8.66 2 9 C0.02 5.535 0.02 5.535 -2 2 C-1.34 2 -0.68 2 0 2 C0 1.34 0 0.68 0 0 Z " fill="#D7DAF1" transform="translate(80,42)"/>
<path d="M0 0 C1.91789713 0.28346278 3.83429183 0.5771028 5.75 0.875 C7.35101563 1.11863281 7.35101563 1.11863281 8.984375 1.3671875 C11.67708871 1.93223882 13.63572439 2.63422914 16 4 C13.09905209 5.45047396 11.44027404 4.45356803 8.375 3.5625 C7.37210938 3.27503906 6.36921875 2.98757812 5.3359375 2.69140625 C4.56507812 2.46324219 3.79421875 2.23507812 3 2 C3.66 3.98 4.32 5.96 5 8 C2.25915079 5.63290296 1.2632842 3.35594194 0 0 Z " fill="#636DB7" transform="translate(6,7)"/>
<path d="M0 0 C-1.75 4.875 -1.75 4.875 -4 6 C-4 5.01 -4 4.02 -4 3 C-4.9075 3.350625 -5.815 3.70125 -6.75 4.0625 C-10.00591313 5.00170571 -10.92749994 4.95514676 -14 4 C-12.0429132 3.32968281 -10.08428887 2.66385317 -8.125 2 C-7.03445312 1.62875 -5.94390625 1.2575 -4.8203125 0.875 C-2 0 -2 0 0 0 Z " fill="#4D54ED" transform="translate(141,6)"/>
<path d="M0 0 C0.33 0.99 0.66 1.98 1 3 C3.64 2.67 6.28 2.34 9 2 C6.09907498 3.93395001 5.10325263 4.30131941 1.8125 4.625 C0.554375 4.74875 -0.70375 4.8725 -2 5 C-1.34 3.35 -0.68 1.7 0 0 Z " fill="#AFB2F0" transform="translate(106,13)"/>
<path d="M0 0 C0.66 0.33 1.32 0.66 2 1 C2 1.99 2 2.98 2 4 C-1.3 3.34 -4.6 2.68 -8 2 C-4.29847322 1.07461831 -3.36541838 0.91825838 0 2 C0 1.34 0 0.68 0 0 Z " fill="#B3B7E6" transform="translate(40,14)"/>
</svg>
